<svg width="994" height="355" viewBox="0 0 994 355" fill="none" xmlns="http://www.w3.org/2000/svg">
<g clip-path="url(#clip0_2070_794)">
<path d="M613.07 96.0378C613.278 97.0494 612.819 98.0866 611.952 98.6009L506.606 161.136C500.477 164.77 492.923 164.77 486.786 161.136L381.423 98.5924C380.556 98.078 380.097 97.0408 380.306 96.0293C381.248 91.4517 382.449 86.977 383.883 82.6051C384.35 81.1736 385.984 80.5392 387.26 81.2936L493.773 144.514C495.575 145.585 497.801 145.585 499.602 144.514L606.107 81.2936C607.383 80.5392 609.017 81.165 609.484 82.6051C610.918 86.977 612.119 91.4517 613.061 96.0293L613.07 96.0378Z" fill="#151515"/>
<path d="M598.175 62.479L515.35 111.641C511.465 113.947 506.604 111.067 506.604 106.455V2.39609C506.604 0.964523 507.813 -0.132725 509.188 0.0130032C513.624 0.484477 517.994 1.21312 522.271 2.17321C523.338 2.41323 524.089 3.39047 524.089 4.51344V85.6927L588.661 47.3661C589.67 46.7661 590.971 47.0232 591.679 47.9833C594.314 51.5665 596.757 55.2955 599 59.1701C599.667 60.3274 599.3 61.819 598.175 62.4876V62.479Z" fill="#151515"/>
<path d="M469.303 4.65293V85.695L404.723 47.3599C403.714 46.7598 402.413 47.017 401.704 47.9771C399.07 51.5603 396.626 55.2892 394.383 59.1639C393.716 60.3211 394.083 61.8127 395.209 62.4814L478.042 111.643C481.927 113.949 486.789 111.069 486.789 106.457V2.5613C486.789 1.08687 485.504 -0.0360906 484.095 0.19536L471.271 2.27842C470.137 2.45844 469.303 3.46996 469.303 4.64436V4.65293Z" fill="#151515"/>
</g>
<path d="M60.753 354.785C48.686 354.785 38.0527 352.157 28.8532 346.9C19.7731 341.524 12.6643 334.116 7.52691 324.678C2.50897 315.239 0 304.367 0 292.061C0 282.981 1.49344 274.677 4.48031 267.151C7.58665 259.504 11.828 252.873 17.2044 247.258C22.7002 241.643 29.0921 237.282 36.3801 234.175C43.7875 231.069 51.8521 229.516 60.5737 229.516C65.4722 229.516 70.9681 230.113 77.0613 231.308C83.1545 232.383 89.188 234.653 95.1617 238.118L95.8786 264.104H84.7674L81.1832 243.315C77.9573 241.523 74.7913 240.269 71.6849 239.552C68.698 238.835 65.7709 238.477 62.9035 238.477C54.8987 238.477 47.6107 240.508 41.0396 244.57C34.4685 248.632 29.2116 254.665 25.2689 262.67C21.4457 270.556 19.5341 280.353 19.5341 292.061C19.5341 303.77 21.3263 313.626 24.9105 321.631C28.4947 329.636 33.453 335.669 39.7851 339.732C46.2368 343.794 53.5247 345.825 61.649 345.825C65.1138 345.825 68.6383 345.466 72.2225 344.749C75.9263 343.913 79.5105 342.659 82.9753 340.986L86.5595 320.197H97.6707L96.9538 346.183C91.458 349.17 85.6037 351.321 79.391 352.635C73.2978 354.068 67.0851 354.785 60.753 354.785Z" fill="#151515"/>
<path d="M150.155 354.427C143.225 354.427 136.594 352.814 130.262 349.588C124.049 346.243 118.972 341.285 115.029 334.714C111.086 328.023 109.115 319.779 109.115 309.982C109.115 300.066 111.086 291.762 115.029 285.072C118.972 278.262 124.049 273.184 130.262 269.839C136.594 266.374 143.225 264.642 150.155 264.642C157.084 264.642 163.655 266.374 169.868 269.839C176.2 273.184 181.338 278.262 185.28 285.072C189.342 291.762 191.373 300.066 191.373 309.982C191.373 319.779 189.342 328.023 185.28 334.714C181.338 341.285 176.2 346.243 169.868 349.588C163.655 352.814 157.084 354.427 150.155 354.427ZM150.155 346.362C157.921 346.362 163.894 343.316 168.076 337.223C172.258 331.01 174.348 321.93 174.348 309.982C174.348 297.915 172.258 288.716 168.076 282.384C163.894 276.051 157.921 272.885 150.155 272.885C142.389 272.885 136.415 276.051 132.233 282.384C128.171 288.716 126.14 297.915 126.14 309.982C126.14 321.93 128.171 331.01 132.233 337.223C136.415 343.316 142.389 346.362 150.155 346.362Z" fill="#151515"/>
<path d="M220.017 309.982C220.017 321.691 222.346 330.353 227.006 335.968C231.785 341.464 237.759 344.212 244.927 344.212C248.87 344.212 252.335 343.435 255.321 341.882C258.428 340.209 261.654 337.521 264.999 333.818V284.176C260.937 280.591 257.293 278.142 254.067 276.828C250.841 275.514 247.735 274.857 244.748 274.857C240.327 274.857 236.205 276.111 232.382 278.62C228.679 281.01 225.692 284.833 223.422 290.09C221.152 295.227 220.017 301.858 220.017 309.982ZM266.791 353.889L265.537 341.524C262.43 345.586 258.846 348.752 254.784 351.022C250.841 353.292 246.062 354.427 240.447 354.427C233.159 354.427 226.767 352.575 221.271 348.871C215.775 345.168 211.474 340.03 208.368 333.459C205.381 326.768 203.888 319.062 203.888 310.341C203.888 301.141 205.56 293.136 208.905 286.326C212.251 279.516 216.791 274.2 222.526 270.376C228.26 266.553 234.772 264.642 242.06 264.642C246.241 264.642 250.244 265.478 254.067 267.151C258.01 268.823 261.833 271.87 265.537 276.29V235.788L250.304 233.996V227.724L278.261 219.659L280.77 221.093L280.053 246.541V343.495L294.569 345.646V352.097L266.791 353.889Z" fill="#151515"/>
<path d="M342.129 272.885C338.784 272.885 335.378 273.841 331.914 275.753C328.568 277.664 325.641 280.711 323.132 284.893C320.743 289.074 319.19 294.63 318.473 301.559H351.089C355.391 301.559 358.198 300.663 359.512 298.871C360.946 297.079 361.663 294.869 361.663 292.24C361.663 288.775 360.767 285.609 358.975 282.742C357.302 279.755 354.972 277.366 351.985 275.574C349.118 273.781 345.833 272.885 342.129 272.885ZM341.95 354.427C329.883 354.427 320.205 350.544 312.917 342.778C305.629 334.893 301.985 324.08 301.985 310.341C301.985 301.141 303.837 293.136 307.541 286.326C311.364 279.516 316.382 274.2 322.595 270.376C328.927 266.553 335.797 264.642 343.204 264.642C349.417 264.642 355.032 266.016 360.05 268.763C365.068 271.511 369.07 275.454 372.057 280.591C375.044 285.609 376.538 291.762 376.538 299.05C376.538 301.081 376.418 302.993 376.179 304.785C375.94 306.458 375.641 307.891 375.283 309.086H318.114C318.353 320.078 321.101 328.441 326.358 334.176C331.615 339.911 338.545 342.778 347.147 342.778C352.882 342.778 357.661 341.643 361.484 339.373C365.307 336.984 368.831 333.937 372.057 330.233L376.358 333.638C373.013 339.97 368.473 345.048 362.738 348.871C357.003 352.575 350.074 354.427 341.95 354.427Z" fill="#151515"/>
<path d="M450.869 354.785C438.802 354.785 428.168 352.157 418.969 346.9C409.889 341.524 402.78 334.116 397.643 324.678C392.625 315.239 390.116 304.367 390.116 292.061C390.116 282.981 391.609 274.677 394.596 267.151C397.702 259.504 401.944 252.873 407.32 247.258C412.816 241.643 419.208 237.282 426.496 234.175C433.903 231.069 441.968 229.516 450.689 229.516C455.588 229.516 461.084 230.113 467.177 231.308C473.27 232.383 479.304 234.653 485.277 238.118L485.994 264.104H474.883L471.299 243.315C468.073 241.523 464.907 240.269 461.801 239.552C458.814 238.835 455.887 238.477 453.019 238.477C445.014 238.477 437.726 240.508 431.155 244.57C424.584 248.632 419.327 254.665 415.385 262.67C411.561 270.556 409.65 280.353 409.65 292.061C409.65 303.77 411.442 313.626 415.026 321.631C418.61 329.636 423.569 335.669 429.901 339.732C436.352 343.794 443.64 345.825 451.765 345.825C455.229 345.825 458.754 345.466 462.338 344.749C466.042 343.913 469.626 342.659 473.091 340.986L476.675 320.197H487.786L487.069 346.183C481.574 349.17 475.719 351.321 469.507 352.635C463.413 354.068 457.201 354.785 450.869 354.785Z" fill="#151515"/>
<path d="M498.693 352.097V345.646L511.596 343.316C511.716 338.776 511.776 333.877 511.776 328.62C511.895 323.244 511.955 318.525 511.955 314.463V305.86C511.955 300.962 511.895 296.9 511.776 293.674C511.776 290.448 511.656 287.043 511.417 283.459L497.259 281.846V275.574L522.349 264.642L525.037 266.434L527.009 287.581C529.995 280.412 533.819 274.797 538.478 270.735C543.257 266.673 548.036 264.642 552.815 264.642C555.563 264.642 558.132 265.239 560.521 266.434C562.911 267.628 564.643 269.241 565.719 271.272C565.719 279.994 562.194 284.355 555.145 284.355C553.114 284.355 551.202 283.996 549.41 283.28C547.618 282.443 545.886 281.308 544.213 279.875L542.062 277.903C538.478 280.532 535.491 283.758 533.102 287.581C530.712 291.404 528.741 295.884 527.188 301.022V314.463C527.188 318.405 527.188 323.005 527.188 328.262C527.307 333.519 527.427 338.417 527.546 342.957L542.242 345.646V352.097H498.693Z" fill="#151515"/>
<path d="M635.989 353.889C631.688 353.889 628.104 352.635 625.237 350.126C622.369 347.617 620.577 344.272 619.86 340.09C614.962 344.869 610.661 348.453 606.957 350.843C603.253 353.232 598.773 354.427 593.516 354.427C586.945 354.427 581.27 352.575 576.491 348.871C571.831 345.048 569.502 339.433 569.502 332.025C569.502 328.561 570.278 325.335 571.831 322.348C573.504 319.361 576.491 316.434 580.792 313.567C585.093 310.699 591.246 307.832 599.251 304.964C601.999 304.009 605.165 302.993 608.749 301.918C612.333 300.842 615.917 299.887 619.502 299.05V294.57C619.502 285.848 618.188 280.054 615.559 277.186C612.931 274.319 608.63 272.885 602.656 272.885C601.342 272.885 599.848 272.945 598.175 273.065C596.622 273.184 594.89 273.483 592.978 273.961L589.573 285.609C587.901 291.344 584.794 294.212 580.254 294.212C575.236 294.212 572.429 291.762 571.831 286.864C573.504 280.054 577.447 274.677 583.659 270.735C589.991 266.673 597.698 264.642 606.778 264.642C616.216 264.642 623.205 267.031 627.745 271.81C632.286 276.47 634.556 284.474 634.556 295.825V333.997C634.556 337.82 635.153 340.568 636.348 342.24C637.542 343.794 639.096 344.57 641.007 344.57C642.56 344.57 643.875 344.212 644.95 343.495C646.025 342.778 647.041 341.822 647.996 340.628L651.581 344.57C649.43 348.035 647.041 350.484 644.412 351.918C641.903 353.232 639.096 353.889 635.989 353.889ZM585.451 329.337C585.451 334.116 586.825 337.521 589.573 339.552C592.321 341.583 595.726 342.599 599.788 342.599C601.581 342.599 603.253 342.36 604.806 341.882C606.479 341.404 608.45 340.508 610.72 339.194C612.99 337.76 615.917 335.729 619.502 333.101V305.681C616.395 306.518 613.349 307.473 610.362 308.549C607.375 309.504 604.926 310.341 603.014 311.058C597.877 313.089 594.054 315.179 591.545 317.33C589.036 319.481 587.363 321.571 586.527 323.602C585.81 325.633 585.451 327.545 585.451 329.337Z" fill="#151515"/>
<path d="M655.486 352.097V345.646L669.643 343.137C669.763 338.358 669.823 333.579 669.823 328.8C669.942 324.021 670.002 319.242 670.002 314.463V276.47H655.127V268.584L670.36 266.613C671.197 257.055 672.511 249.349 674.303 243.495C676.214 237.521 679.381 232.324 683.801 227.903C687.624 224.08 691.627 221.451 695.808 220.018C699.99 218.584 704.112 217.867 708.174 217.867C712.356 217.867 716.059 218.644 719.285 220.197C722.511 221.631 724.542 224.08 725.378 227.545C725.259 229.815 724.243 231.726 722.332 233.279C720.42 234.833 717.792 235.609 714.446 235.609C710.145 235.609 705.844 233.817 701.543 230.233L696.525 226.29C696.047 226.649 695.569 227.007 695.091 227.365C694.733 227.724 694.375 228.082 694.016 228.441C690.91 231.547 688.52 236.266 686.848 242.598C685.295 248.811 684.637 256.935 684.876 266.971H723.765L728.604 242.598H739.178L738.282 266.971H762.296V276.47H737.923V332.025C737.923 336.565 738.819 339.911 740.611 342.061C742.404 344.092 744.793 345.108 747.78 345.108C749.811 345.108 751.782 344.69 753.694 343.853C755.605 343.017 757.696 341.822 759.966 340.269L764.088 344.929C759.429 351.261 752.38 354.427 742.941 354.427C736.728 354.427 731.77 352.754 728.067 349.409C724.363 346.064 722.511 340.926 722.511 333.997C722.511 331.727 722.511 329.516 722.511 327.366C722.63 325.096 722.69 322.228 722.69 318.764V276.47H685.235V314.463C685.235 319.242 685.235 324.021 685.235 328.8C685.354 333.459 685.474 338.178 685.593 342.957L701.722 345.646V352.097H655.486Z" fill="#151515"/>
<path d="M812.575 272.885C809.23 272.885 805.825 273.841 802.36 275.753C799.015 277.664 796.087 280.711 793.578 284.893C791.189 289.074 789.636 294.63 788.919 301.559H821.536C825.837 301.559 828.644 300.663 829.958 298.871C831.392 297.079 832.109 294.869 832.109 292.24C832.109 288.775 831.213 285.609 829.421 282.742C827.748 279.755 825.419 277.366 822.432 275.574C819.564 273.781 816.279 272.885 812.575 272.885ZM812.396 354.427C800.329 354.427 790.651 350.544 783.363 342.778C776.075 334.893 772.431 324.08 772.431 310.341C772.431 301.141 774.283 293.136 777.987 286.326C781.81 279.516 786.828 274.2 793.041 270.376C799.373 266.553 806.243 264.642 813.65 264.642C819.863 264.642 825.478 266.016 830.496 268.763C835.514 271.511 839.517 275.454 842.503 280.591C845.49 285.609 846.984 291.762 846.984 299.05C846.984 301.081 846.864 302.993 846.625 304.785C846.386 306.458 846.088 307.891 845.729 309.086H788.56C788.799 320.078 791.547 328.441 796.804 334.176C802.061 339.911 808.991 342.778 817.593 342.778C823.328 342.778 828.107 341.643 831.93 339.373C835.753 336.984 839.278 333.937 842.503 330.233L846.804 333.638C843.459 339.97 838.919 345.048 833.184 348.871C827.45 352.575 820.52 354.427 812.396 354.427Z" fill="#151515"/>
<path d="M859.666 352.097V345.646L872.569 343.316C872.688 338.776 872.748 333.877 872.748 328.62C872.868 323.244 872.927 318.525 872.927 314.463V305.86C872.927 300.962 872.868 296.9 872.748 293.674C872.748 290.448 872.629 287.043 872.39 283.459L858.232 281.846V275.574L883.322 264.642L886.01 266.434L887.981 287.581C890.968 280.412 894.791 274.797 899.451 270.735C904.23 266.673 909.009 264.642 913.788 264.642C916.536 264.642 919.104 265.239 921.494 266.434C923.883 267.628 925.616 269.241 926.691 271.272C926.691 279.994 923.167 284.355 916.118 284.355C914.086 284.355 912.175 283.996 910.383 283.28C908.591 282.443 906.858 281.308 905.186 279.875L903.035 277.903C899.451 280.532 896.464 283.758 894.074 287.581C891.685 291.404 889.714 295.884 888.161 301.022V314.463C888.161 318.405 888.161 323.005 888.161 328.262C888.28 333.519 888.399 338.417 888.519 342.957L903.214 345.646V352.097H859.666Z" fill="#151515"/>
<path d="M958.427 354.427C953.409 354.427 948.809 353.83 944.628 352.635C940.446 351.56 936.145 349.887 931.725 347.617L931.008 327.903H940.864L944.269 343.495C948.451 345.407 953.29 346.362 958.786 346.362C965.596 346.362 970.614 345.108 973.839 342.599C977.185 340.09 978.857 336.804 978.857 332.742C978.857 328.919 977.483 325.872 974.735 323.602C971.988 321.213 967.806 319.062 962.191 317.151L953.947 314.104C947.376 311.715 942.119 308.608 938.176 304.785C934.234 300.962 932.262 296.004 932.262 289.911C932.262 285.49 933.457 281.368 935.846 277.545C938.236 273.722 941.76 270.615 946.42 268.226C951.079 265.836 956.754 264.642 963.445 264.642C968.344 264.642 972.764 265.299 976.707 266.613C980.769 267.808 984.712 269.6 988.535 271.989L987.818 290.269H978.499L975.632 275.932C971.569 273.901 967.447 272.885 963.266 272.885C957.77 272.885 953.588 274.02 950.721 276.29C947.973 278.441 946.599 281.368 946.599 285.072C946.599 289.014 947.794 292.001 950.183 294.032C952.692 296.063 956.993 298.214 963.087 300.484L968.642 302.455C977.603 305.801 983.935 309.624 987.639 313.925C991.462 318.226 993.374 323.184 993.374 328.8C993.374 333.34 992.059 337.581 989.431 341.524C986.802 345.347 982.919 348.453 977.782 350.843C972.645 353.232 966.193 354.427 958.427 354.427Z" fill="#151515"/>
<defs>
<clipPath id="clip0_2070_794">
<rect width="232.864" height="163.867" fill="white" transform="translate(380.254)"/>
</clipPath>
</defs>
</svg>
