<?xml version="1.0" encoding="UTF-8" standalone="no"?>
<!DOCTYPE svg PUBLIC "-//W3C//DTD SVG 1.1//EN" "http://www.w3.org/Graphics/SVG/1.1/DTD/svg11.dtd">
<svg width="100%" height="100%" viewBox="0 0 511 568" version="1.1" xmlns="http://www.w3.org/2000/svg" xmlns:xlink="http://www.w3.org/1999/xlink" xml:space="preserve" xmlns:serif="http://www.serif.com/" style="fill-rule:evenodd;clip-rule:evenodd;stroke-linejoin:round;stroke-miterlimit:2;">
    <g transform="matrix(1,0,0,1,-224,-214.996419)">
        <g>
            <g>
                <g>
                    <g transform="matrix(2.923625,0,0,2.923625,-910.118026,-1167.903024)">
                        <path d="M409.31,585.942C402.857,621.525 418.64,661.544 464.632,666.684C508.991,671.641 535.705,632.834 535.543,600.437C535.345,561.055 516.31,536.483 481.264,532.789C443.848,528.845 414.717,556.129 409.31,585.942Z"/>
                    </g>
                    <g transform="matrix(2.507909,0,0,2.507909,-714.009735,-918.572753)">
                        <path d="M409.31,585.942C402.857,621.525 418.64,661.544 464.632,666.684C508.991,671.641 535.705,632.834 535.543,600.437C535.363,564.665 519.641,541.112 490.495,534.326C487.554,533.641 488.463,526.349 485.251,526.01C481.934,525.66 470.707,525.955 467.531,526.076C465.183,526.166 466.863,532.759 464.602,533.087C435.428,537.32 413.884,560.727 409.31,585.942Z" style="fill:rgb(247,122,50);"/>
                    </g>
                </g>
                <g>
                    <g transform="matrix(1.37626,0,0,1.37626,-178.069643,-224.633017)">
                        <path d="M419.914,582.18C413.46,617.763 420.008,660.86 466,666C510.36,670.957 527.93,623.517 528.36,598.727C528.824,571.937 519.047,531.694 484,528C446.584,524.056 425.321,552.367 419.914,582.18Z"/>
                    </g>
                    <path d="M425,580C420,612.676 417.828,663.04 466,666C510.552,668.737 523.571,622.791 524,598C524.464,571.21 517.593,529.514 484,528C446.415,526.306 429.583,550.049 425,580Z" style="fill:white;"/>
                </g>
            </g>
            <g>
                <g>
                    <path d="M320,276C316.649,275.242 308.138,257.846 340,231C371.862,204.154 393.681,215.22 410,234C426.319,252.78 421.888,275.918 402,257C382.112,238.082 359.728,246.914 347,259C334.272,271.086 329.433,278.133 320,276Z"/>
                    <g transform="matrix(-1,0,0,1,967.022249,0)">
                        <path d="M319,276C315.649,275.242 307.249,256.756 340,230C372.116,203.763 396.919,217.259 413,235C437.605,262.144 430.425,297.602 403,262C387.628,242.045 363.123,246.722 348,259C333.282,270.949 328.433,278.133 319,276Z"/>
                    </g>
                </g>
                <g>
                    <g>
                        <g>
                            <g transform="matrix(0.219802,0,0,1.142857,174.764356,-55.857143)">
                                <path d="M729,384C729,391.727 696.383,398 656.207,398L296.793,398C256.617,398 224,391.727 224,384C224,376.273 256.617,370 296.793,370L656.207,370C696.383,370 729,376.273 729,384Z"/>
                            </g>
                            <g transform="matrix(0.219802,0,0,1.142857,574.471534,-55.857143)">
                                <path d="M729,384C729,391.727 696.383,398 656.207,398L296.793,398C256.617,398 224,391.727 224,384C224,376.273 256.617,370 296.793,370L656.207,370C696.383,370 729,376.273 729,384Z"/>
                            </g>
                        </g>
                        <g transform="matrix(0.219802,0,0,1.142857,375.227201,-46.857143)">
                            <path d="M729,384C729,391.727 696.383,398 656.207,398L296.793,398C256.617,398 224,391.727 224,384C224,376.273 256.617,370 296.793,370L656.207,370C696.383,370 729,376.273 729,384Z"/>
                        </g>
                        <g>
                            <g transform="matrix(1.399707,0,0,1.399707,-482.824216,-156.866561)">
                                <path d="M600,335C640.302,333.076 676,362.606 675,410C674.127,451.384 641.384,484.108 600,485C553.606,486 525.855,451.385 525,410C524,361.606 557.561,337.026 600,335Z"/>
                            </g>
                            <g transform="matrix(1,0,0,1,-243,7)">
                                <path d="M600,335C640.302,333.076 676,362.606 675,410C674.127,451.384 641.384,484.108 600,485C553.606,486 525.855,451.385 525,410C524,361.606 557.561,337.026 600,335Z" style="fill:white;"/>
                            </g>
                        </g>
                        <g>
                            <g transform="matrix(1.373239,0,0,1.373239,-220.955921,-146.027815)">
                                <path d="M600,335C633.302,335.076 674.976,367.606 674,415C673.127,457.384 641.394,485 600,485C553.606,485 524.855,454.385 524,413C523,364.606 557.512,334.903 600,335Z"/>
                            </g>
                            <g transform="matrix(1,0,0,1,2.613237,7)">
                                <path d="M600,335C633.302,335.076 674.976,367.606 674,415C673.127,457.384 641.394,485 600,485C553.606,485 524.855,454.385 524,413C523,364.606 557.512,334.903 600,335Z" style="fill:white;"/>
                            </g>
                        </g>
                    </g>
                    <g>
                        <path d="M350,419C347.465,439.133 358.33,444.917 368,430C374.72,419.634 382.618,422.649 386,428C389.382,433.351 408.628,446.527 403,417C397.003,385.541 353.975,387.432 350,419Z"/>
                        <g transform="matrix(-1,0,0,1,960.215674,0)">
                            <path d="M350,419C347.807,439.173 362.33,443.917 369,431C374.668,420.023 381.989,423.102 386,428C390.382,433.351 409.729,446.296 403,417C396.003,386.541 353.975,382.432 350,419Z"/>
                        </g>
                    </g>
                </g>
            </g>
        </g>
    </g>
</svg>
